<svg width="437" height="295" viewBox="0 0 437 295" fill="none" xmlns="http://www.w3.org/2000/svg">
<rect width="437" height="295" fill="#1E1E1E"/>
<path d="M78.4883 233H0.729492C16.7939 163.957 27.9593 90.1289 34.2256 11.5156C34.2256 10.0345 36.0485 7.81283 39.6943 4.85059C43.4541 1.88835 46.6442 0.407227 49.2646 0.407227H126.853C118.535 35.4984 111.472 73.096 105.661 113.2C121.384 116.276 131.467 118.669 135.91 120.378C135.91 127.442 134.6 132.626 131.979 135.93C120.244 136.841 110.218 138.151 101.901 139.86C98.3695 167.66 95.5212 194.947 93.3564 221.721C93.3564 223.202 91.5335 225.48 87.8877 228.557C84.2419 231.519 81.1087 233 78.4883 233ZM205.466 233H127.878C143.715 165.21 154.88 91.3822 161.374 11.5156C161.374 10.0345 163.197 7.81283 166.843 4.85059C170.489 1.88835 173.622 0.407227 176.242 0.407227H253.83C237.993 67.8551 226.828 141.626 220.334 221.721C220.334 223.202 218.454 225.48 214.694 228.557C211.049 231.519 207.972 233 205.466 233Z" fill="#2600FF"/>
<path d="M421.322 295H345.956C346.64 266.973 346.981 238.433 346.981 209.38C346.981 180.327 345.557 147.344 342.709 110.43C346.583 102.34 351.994 90.0358 358.944 73.5156C359.742 71.6927 361.793 69.4141 365.097 66.6797C368.401 63.8314 371.306 62.4072 373.812 62.4072H426.107C425.31 77.4463 424.911 94.1374 424.911 112.48C424.911 169.902 428.728 226.982 436.361 283.721C436.361 285.202 434.538 287.48 430.893 290.557C427.247 293.519 424.057 295 421.322 295ZM304.086 286.113C303.288 287.822 301.522 289.759 298.788 291.924C296.054 293.975 293.889 295 292.294 295H265.121C260.336 266.631 254.127 236.781 246.493 205.449C238.86 174.118 231.283 148.312 223.764 128.032C224.219 125.412 225.701 117.437 228.207 104.106C230.827 90.6624 232.65 80.4655 233.676 73.5156C234.018 71.9206 235.954 69.6989 239.486 66.8506C243.018 63.8883 246.037 62.4072 248.544 62.4072H298.275C306.137 107.98 312.631 138.799 317.758 154.863C322.999 170.814 327.784 183.574 332.113 193.145C321.176 225.843 311.833 256.833 304.086 286.113ZM220.004 171.44C220.574 199.924 221.599 221.685 223.08 236.724C224.675 251.763 228.036 267.428 233.163 283.721C233.163 285.202 231.283 287.48 227.523 290.557C223.878 293.519 220.688 295 217.953 295H163.437C174.716 268.112 183.546 246.351 189.926 229.717C196.306 212.969 201.376 197.246 205.136 182.549C205.136 181.068 206.959 178.846 210.604 175.884C214.25 172.922 217.383 171.44 220.004 171.44Z" fill="#00D9FF"/>
</svg>
